PathFileType	4	(X/Y/Z)	Patient4_TMGait_0pt3_03_right_10.trc.trc
DataRate	CameraRate	NumFrames	NumMarkers	Units	OrigDataRate	OrigDataStartFrame	OrigNumFrames
53.435114503817	53.435114503817	4	33	mm	53.435114503817	71	       141
Frame#	Time	Sacral			L.Shoulder			Chest			R.Shoulder			Neck			R.ASIS			L.ASIS			R.Thigh.Superior			R.Thigh.Lateral			R.Thigh.Inferior			R.Patella			L.Thigh.Superior			L.Thigh.Lateral			L.Thigh.Inferior			L.Patella			L.Shank.Superior			L.Shank.Lateral			L.Shank.Inferior			R.Shank.Superior			R.Shank.Lateral			R.Shank.Inferior			R.Heel			R.Midfoot.Superior			R.Midfoot.Lateral			R.Toe			L.Heel			L.Midfoot.Lateral			L.Midfoot.Superior			L.Toe			L.Elbow			L.Wrist			R.Elbow			R.Wrist			
		X1	Y1	Z1	X2	Y2	Z2	X3	Y3	Z3	X4	Y4	Z4	X5	Y5	Z5	X6	Y6	Z6	X7	Y7	Z7	X8	Y8	Z8	X9	Y9	Z9	X10	Y10	Z10	X11	Y11	Z11	X12	Y12	Z12	X13	Y13	Z13	X14	Y14	Z14	X15	Y15	Z15	X16	Y16	Z16	X17	Y17	Z17	X18	Y18	Z18	X19	Y19	Z19	X20	Y20	Z20	X21	Y21	Z21	X22	Y22	Z22	X23	Y23	Z23	X24	Y24	Z24	X25	Y25	Z25	X26	Y26	Z26	X27	Y27	Z27	X28	Y28	Z28	X29	Y29	Z29	X30	Y30	Z30	X31	Y31	Z31	X32	Y32	Z32	X33	Y33	Z33	

71	20.260000000000	767.806736563265	1003.547827636196	597.697549839439	924.820658624910	1426.504833838435	392.304542201500	1056.631714360474	1349.166555298997	526.436156947153	1019.139435135910	1426.734784950095	712.670729604669	945.149022186030	1485.849632479183	547.523565456006	1008.330791374028	924.256693062461	672.498861350666	953.245256306465	957.551383366005	404.677055893276	1018.060378536864	718.364466596321	630.904110253480	931.860225486781	612.386992010386	695.074933907440	991.241823613666	557.539855923923	603.796611509768	980.532393084536	464.834638099018	607.045427772307	1024.704819384004	765.778688482824	423.762796174118	964.042319869559	641.640120131458	346.957381431295	1065.479111877927	577.276016616995	404.476249555706	1089.070709108271	516.253333883335	400.308602732647	1074.731281842387	446.662963196598	385.596718837278	1015.072193201173	317.295798252267	325.262144057498	1105.784985038535	218.472658043913	375.790629219568	930.316702568633	382.345022720791	612.790966351295	844.047800131046	292.725112809844	678.783366167694	855.907516057199	195.860103101165	607.918890391436	690.384088436667	47.601310928341	578.956418850918	862.056182267830	94.419518785669	612.482095232541	773.187761703749	38.192699888125	653.115576019955	981.263405754421	40.303670843071	644.189094158265	1025.439745103405	39.292259260598	403.812062085300	1102.483480698214	44.733134089241	326.710070821947	1173.546735493584	120.694949936290	352.210868653700	1307.603412688271	90.553854766824	329.831685483893	744.810314150736	1123.769058362215	311.382321315304	687.894895115321	869.283310242930	338.665090376339	1185.646666684850	1133.857000025238	823.403219520680	1422.715799306928	1197.859344406392	760.500937785937	
72	20.278714285714	768.949729059583	1002.921260288534	595.040250254140	926.096301736513	1425.470286762356	389.071092807929	1057.977176387693	1348.028570513519	523.148234159328	1020.647820758989	1425.777677809882	709.295056350661	946.635424495266	1484.953509028165	544.222214823278	1009.116281786905	923.405673091711	670.374949958980	954.349425576385	956.159778418616	402.441555534106	1016.931408234487	717.080375246989	629.318558489356	929.574324878358	611.965422653985	693.766172080394	988.278120330401	556.364411833191	602.771116488304	976.590493986439	463.786187872622	606.224055970717	1024.605748801311	763.025312424333	421.610467506909	961.567594539473	639.148755345136	345.747135157906	1062.441390897053	574.262450543579	403.273828481862	1085.201285869693	513.738348467854	399.782269120974	1071.607645179765	444.370596234195	385.048764681580	1012.881890847054	314.526897772713	325.271098094568	1104.188683143567	216.577105198217	376.224394104543	926.039155658122	381.658848500204	612.124392528090	839.263181631830	292.634292163971	678.275536946722	850.719759233312	195.538142489302	607.630144247089	684.707944251614	47.586316929920	578.920124832128	856.615995289199	94.692043566159	612.874159358485	767.505919148285	38.199824752669	653.112669553280	975.610767828225	40.259821583473	644.229775315552	1024.471633770964	38.272331288045	404.743832977002	1101.347177611771	43.634338935415	327.454773668052	1172.918202127731	118.586987575994	353.368461455232	1306.649887407938	87.503020740406	330.553670961264	745.610656201860	1122.824103813495	310.264371549017	688.523381669726	868.321394143953	339.778752039547	1190.647682510079	1134.910001843851	818.265204559540	1426.297987374817	1202.863055121680	754.494641730867	
73	20.297428571429	770.201996640405	1002.103559199592	592.066279769620	927.618571108148	1424.202544778306	385.509492937467	1059.453081256041	1346.775353144741	519.710785419534	1022.051997918948	1424.720777554055	705.734798138607	948.189289619468	1483.922970227960	540.619460635113	1010.074784921867	922.433858916230	668.085534451651	955.733458725989	954.654457051725	400.034938767109	1016.199557131280	715.722490483221	627.530852803893	927.754111492905	611.413920958442	692.216950771220	985.842716791687	555.094981375621	601.521070523258	973.207393031969	462.584410792143	605.188891193548	1025.076082471183	760.447369559208	419.449064037574	960.073762699077	636.756772843964	344.471834604922	1060.403306522295	571.541296293144	402.164801653566	1082.323589615948	511.220875621002	399.254895465091	1069.210674383994	441.927644855348	384.498333062218	1010.701211509524	311.932726270068	325.315170081261	1101.986608877705	214.326183616236	376.679225250437	922.206701282105	380.866847765406	611.292718880542	834.796847484276	292.558536536083	677.639241108001	845.719265299964	195.196923476555	607.273890552217	679.066253803933	47.710458429258	578.889142143868	851.237190983260	95.012186548945	613.294444673730	761.846035926777	38.280404878344	653.109765890569	969.977394306293	40.183124926600	644.276775671593	1021.714714723895	37.556040711402	405.765241962250	1098.360127869337	42.389132894214	328.204558200352	1171.031952698907	115.741190294208	354.546533279771	1304.163728357428	82.718108615179	331.125049250282	747.698033465078	1120.934285220797	308.558960129846	690.886690438137	866.338279207764	340.008965625323	1194.614852198208	1135.310805646172	813.294287851544	1429.181812403446	1206.179321885052	748.748027928404	
74	20.316142857143	771.553332545043	1001.231272682130	588.814171807568	929.369184903222	1422.830845506325	381.662023911453	1061.071633947408	1345.513619532289	516.123374528073	1023.433812084349	1423.678652665516	702.000205639437	949.832937506840	1482.868341255043	536.741460306302	1011.201639259037	921.423626605342	665.589821330503	957.345871795356	953.189598796917	397.432450803294	1015.843647014679	714.368865818936	625.528811523006	926.379587326025	610.818317624282	690.440463260736	983.916781059560	553.803593975814	600.061983039838	970.358190225911	461.314200161927	603.966198969263	1026.085971804550	758.216824225275	417.248539881540	959.603533229249	634.624828800194	343.064671536342	1059.430624125175	569.272703668696	401.067496042539	1080.517921243755	508.877390570220	398.673305000978	1067.678183326495	439.519600101592	383.908783518230	1008.831946461285	309.641037497675	325.247703480033	1099.495756106998	211.900288987179	377.089804228265	918.808178654617	380.050205042587	610.322716106170	830.653004841447	292.581534931103	676.908393495945	840.923498125801	194.917282577010	606.887124889619	673.477862447929	48.075297138249	578.892661136307	845.932656922725	95.363566651549	613.712258208566	756.226923160071	38.482163236934	653.125688401356	964.373293709171	40.058889747724	644.330490225244	1017.617642576814	37.146678864356	406.717327309764	1094.052067302398	41.078106515243	328.880429202910	1168.246403745946	112.430411443158	355.678614208408	1300.599998458804	76.714958808945	331.653783413404	750.957503476451	1118.312827298437	306.225455148431	694.911364506257	863.532743458274	339.253782721279	1197.608898865328	1135.147378874850	808.547983765544	1431.476886102744	1207.891560844068	743.302229600635	
